<svg width="292" height="170" viewBox="0 0 292 170" fill="none" xmlns="http://www.w3.org/2000/svg">
<g opacity="0.8">
<path d="M40.2879 76.1364C49.1812 76.1364 57.7103 72.4759 63.9989 65.9601C70.2874 59.4443 73.8203 50.607 73.8203 41.3923C73.8203 32.1776 70.2874 23.3403 63.9989 16.8245C57.7103 10.3087 49.1812 6.6482 40.2879 6.6482L40.2879 41.3923L40.2879 76.1364Z" fill="#2C8780"/>
<path d="M180.701 76.1364C189.594 76.1364 198.123 72.4759 204.412 65.9601C210.701 59.4443 214.233 50.607 214.233 41.3923C214.233 32.1776 210.701 23.3403 204.412 16.8245C198.123 10.3087 189.594 6.6482 180.701 6.6482L180.701 41.3923V76.1364Z" fill="#2C8780" fill-opacity="0.5"/>
<path d="M253.002 6.64741C253.002 11.2101 252.108 15.7281 250.37 19.9434C248.632 24.1588 246.085 27.9889 242.874 31.2152C239.663 34.4415 235.851 37.0007 231.655 38.7468C227.46 40.4928 222.963 41.3915 218.422 41.3915V6.64741H253.002Z" fill="#1A1A1A"/>
<path d="M218.277 41.4059C222.809 41.4039 227.297 42.3004 231.484 44.0443C235.671 45.7881 239.477 48.3452 242.682 51.5693C245.888 54.7935 248.432 58.6218 250.168 62.8355C251.904 67.0491 252.799 71.5658 252.801 76.1274L218.293 76.1425L218.277 41.4059Z" fill="#2C8780"/>
<path d="M254.053 6.64954H278.977C286.046 6.64954 291.777 12.3803 291.777 19.4495V41.3937H266.853C259.783 41.3937 254.053 35.6629 254.053 28.5937V6.64954Z" fill="#2C8780"/>
<path d="M0.000976562 6.64954H24.9249C31.9942 6.64954 37.7249 12.3803 37.7249 19.4495V41.3937H12.801C5.73173 41.3937 0.000976562 35.6629 0.000976562 28.5937V6.64954Z" fill="#2C8780" fill-opacity="0.5"/>
<path d="M254.053 76.1548V54.2107C254.053 47.1415 259.783 41.4107 266.853 41.4107H291.777V63.3548C291.777 70.4241 286.046 76.1548 278.977 76.1548H254.053Z" fill="#191919"/>
<path d="M0.000976562 76.1548L0.000976563 54.2107C0.000976563 47.1415 5.73173 41.4107 12.801 41.4107H37.7249V63.3548C37.7249 70.4241 31.9942 76.1548 24.9249 76.1548H0.000976562Z" fill="#191919"/>
<path d="M180.86 76.1266C171.966 76.1266 163.437 72.4661 157.149 65.9503C150.86 59.4345 147.327 50.5972 147.327 41.3825C147.327 32.1678 150.86 23.3305 157.149 16.8147C163.437 10.2989 171.966 6.63839 180.86 6.63839L180.86 41.3825V76.1266Z" fill="#333333"/>
<path d="M75.9146 76.1364C80.3181 76.1364 84.6786 75.2377 88.7469 73.4917C92.8152 71.7456 96.5118 69.1864 99.6256 65.9601C102.739 62.7338 105.209 58.9037 106.895 54.6883C108.58 50.473 109.447 45.955 109.447 41.3923L75.9146 41.3923L75.9146 76.1364Z" fill="#2C8780" fill-opacity="0.5"/>
<path d="M109.426 41.473C105.04 41.4869 100.695 40.6021 96.6376 38.8693C92.5802 37.1365 88.8903 34.5895 85.7787 31.3738C82.667 28.158 80.1944 24.3365 78.5022 20.1274C76.8099 15.9183 75.9311 11.4041 75.9159 6.84241L109.31 6.73652L109.426 41.473Z" fill="#333333"/>
<path d="M109.446 41.3666C109.446 37.0723 110.367 32.82 112.158 28.8526C113.948 24.8853 116.573 21.2804 119.881 18.2439C123.19 15.2074 127.117 12.7987 131.44 11.1553C135.762 9.51196 140.395 8.66614 145.074 8.66614V41.3666L109.446 41.3666Z" fill="#2C8780" fill-opacity="0.5"/>
<path d="M109.439 41.4054C113.843 41.4054 118.203 42.304 122.271 44.0501C126.34 45.7962 130.036 48.3554 133.15 51.5817C136.264 54.808 138.734 58.6381 140.419 62.8535C142.104 67.0688 142.971 71.5868 142.971 76.1495H109.439V41.4054Z" fill="#333333"/>
</g>
<g opacity="0.8">
<path d="M40.2896 161.792C49.1829 161.792 57.712 158.038 64.0006 151.356C70.2891 144.675 73.822 135.613 73.822 126.164C73.822 116.714 70.2892 107.652 64.0006 100.971C57.7121 94.2893 49.1829 90.5357 40.2896 90.5357L40.2896 126.164L40.2896 161.792Z" fill="#2C8780"/>
<path d="M180.706 161.792C189.599 161.792 198.128 158.038 204.417 151.356C210.705 144.675 214.238 135.613 214.238 126.164C214.238 116.714 210.705 107.652 204.417 100.971C198.128 94.2893 189.599 90.5357 180.706 90.5357L180.706 126.164V161.792Z" fill="#2C8780" fill-opacity="0.5"/>
<path d="M253.004 90.5314C253.004 95.2101 252.11 99.843 250.372 104.166C248.634 108.488 246.087 112.416 242.876 115.724C239.665 119.032 235.853 121.657 231.657 123.447C227.462 125.238 222.965 126.159 218.424 126.159V90.5314H253.004Z" fill="#1A1A1A"/>
<path d="M218.28 126.166C222.812 126.164 227.299 127.084 231.487 128.872C235.674 130.66 239.479 133.282 242.685 136.588C245.891 139.895 248.434 143.82 250.171 148.141C251.907 152.462 252.801 157.094 252.803 161.771L218.296 161.787L218.28 126.166Z" fill="#2C8780"/>
<path d="M254.054 90.5365H278.978C286.047 90.5365 291.778 96.2673 291.778 103.337V126.164H266.854C259.785 126.164 254.054 120.434 254.054 113.364V90.5365Z" fill="#2C8780"/>
<path d="M0.000244141 90.5365H24.9242C31.9934 90.5365 37.7242 96.2673 37.7242 103.337V126.164H12.8002C5.731 126.164 0.000244141 120.434 0.000244141 113.364V90.5365Z" fill="#2C8780" fill-opacity="0.5"/>
<path d="M254.054 161.806V138.978C254.054 131.909 259.785 126.178 266.854 126.178H291.778V149.006C291.778 156.075 286.047 161.806 278.978 161.806H254.054Z" fill="#191919"/>
<path d="M0.000244141 161.806L0.000244141 138.978C0.000244141 131.909 5.731 126.178 12.8002 126.178H37.7242V149.006C37.7242 156.075 31.9934 161.806 24.9242 161.806H0.000244141Z" fill="#191919"/>
<path d="M180.706 161.792C171.812 161.792 163.283 158.038 156.995 151.356C150.706 144.675 147.173 135.613 147.173 126.164C147.173 116.714 150.706 107.652 156.995 100.971C163.283 94.2893 171.812 90.5357 180.706 90.5357L180.706 126.164V161.792Z" fill="#333333"/>
<path d="M75.9163 161.792C80.3198 161.792 84.6803 160.87 88.7486 159.08C92.8169 157.289 96.5135 154.665 99.6273 151.356C102.741 148.048 105.211 144.12 106.896 139.798C108.581 135.475 109.449 130.842 109.449 126.164H75.9163L75.9163 161.792Z" fill="#2C8780" fill-opacity="0.5"/>
<path d="M109.428 126.243C105.043 126.257 100.697 125.35 96.6398 123.573C92.5824 121.796 88.8925 119.184 85.7809 115.887C82.6692 112.589 80.1966 108.671 78.5044 104.354C76.8121 100.038 75.9333 95.4092 75.9181 90.7315L109.312 90.6229L109.428 126.243Z" fill="#333333"/>
<path d="M109.447 126.136C109.447 121.733 110.369 117.373 112.159 113.304C113.95 109.236 116.574 105.539 119.883 102.426C123.191 99.3118 127.119 96.8418 131.441 95.1567C135.764 93.4715 140.397 92.6042 145.076 92.6042V126.136L109.447 126.136Z" fill="#2C8780" fill-opacity="0.5"/>
<path d="M109.439 126.165C113.843 126.165 118.203 127.087 122.272 128.877C126.34 130.668 130.037 133.292 133.151 136.601C136.264 139.909 138.734 143.837 140.419 148.159C142.105 152.482 142.972 157.115 142.972 161.793H109.439V126.165Z" fill="#333333"/>
</g>
</svg>
